<svg width="68" height="68" viewBox="0 0 68 68" fill="none" xmlns="http://www.w3.org/2000/svg">
<path d="M53.8333 51H25.5C23.9971 51 22.5558 50.403 21.4931 49.3403C20.4304 48.2776 19.8333 46.8362 19.8333 45.3333V11.3333C19.8333 9.83043 20.4304 8.38909 21.4931 7.32638C22.5558 6.26368 23.9971 5.66666 25.5 5.66666H28.3333V19.8333L34 15.5833L39.6667 19.8333V5.66666H53.8333C55.3362 5.66666 56.7776 6.26368 57.8403 7.32638C58.903 8.38909 59.5 9.83043 59.5 11.3333V45.3333C59.5 46.8362 58.903 48.2776 57.8403 49.3403C56.7776 50.403 55.3362 51 53.8333 51ZM48.1667 56.6667V62.3333H14.1667C12.6638 62.3333 11.2224 61.7363 10.1597 60.6736C9.09702 59.6109 8.5 58.1696 8.5 56.6667V17H14.1667V56.6667H48.1667Z" fill="#005F95"/>
</svg>
